# xmcd
#
# Track frame offsets: 
#        150
#        13515
#        29877
#        46109
#        56686
#        70850
#        85713
#        99493
#        115431
#        127946
#        138862
#        151069
#
# Disc length: 2158 seconds
#
# Revision: 0
# Processed by: cddbd v1.5.2PL0 Copyright (c) Steve Scherf et al.
# Submitted via: ExactAudioCopy v0.95b3
#
DISCID=95086c0c
DTITLE=Red Meat - We Never Close
DYEAR=2007
DGENRE=Country
TTITLE0=Honky Tonk Habit
TTITLE1=Pretty Little Lights Of Town
TTITLE2=I'm Not The Girl For You
TTITLE3=Go On Home Mr. Johnson
TTITLE4=Thriftstore Cowgirl
TTITLE5=Sunday
TTITLE6=Moonrock
TTITLE7=Queen Of King City
TTITLE8=High Maintenance Babe
TTITLE9=That Couple In Love
TTITLE10=City Slicker
TTITLE11=I'm Gonna Leave Here Shoutin'
EXTD=
EXTT0=
EXTT1=
EXTT2=
EXTT3=
EXTT4=
EXTT5=
EXTT6=
EXTT7=
EXTT8=
EXTT9=
EXTT10=
EXTT11=
PLAYORDER=
